<mxfile host="65bd71144e">
    <diagram id="XRlnul9ZuTM57sLA9FZB" name="Page-1">
        <mxGraphModel dx="868" dy="470" grid="1" gridSize="10" guides="1" tooltips="1" connect="1" arrows="1" fold="1" page="1" pageScale="1" pageWidth="850" pageHeight="1100" math="0" shadow="0">
            <root>
                <mxCell id="0"/>
                <mxCell id="1" parent="0"/>
                <mxCell id="6" value="XECS" style="swimlane;childLayout=stackLayout;resizeParent=1;resizeParentMax=0;startSize=20;horizontal=0;horizontalStack=1;" vertex="1" parent="1">
                    <mxGeometry x="230" width="440" height="480" as="geometry"/>
                </mxCell>
                <mxCell id="7" value="Customer/Admin" style="swimlane;startSize=20;" vertex="1" parent="6">
                    <mxGeometry x="20" width="160" height="480" as="geometry"/>
                </mxCell>
                <mxCell id="30" style="edgeStyle=none;html=1;exitX=0.5;exitY=1;exitDx=0;exitDy=0;entryX=0;entryY=0.5;entryDx=0;entryDy=0;" edge="1" parent="7" source="10" target="24">
                    <mxGeometry relative="1" as="geometry"/>
                </mxCell>
                <mxCell id="10" value="Start&lt;br&gt;" style="ellipse;whiteSpace=wrap;html=1;rotation=-90;" vertex="1" parent="7">
                    <mxGeometry x="-10" y="230" width="60" height="30" as="geometry"/>
                </mxCell>
                <mxCell id="24" value="" style="rhombus;whiteSpace=wrap;html=1;" vertex="1" parent="7">
                    <mxGeometry x="50" y="240" width="10" height="10" as="geometry"/>
                </mxCell>
                <mxCell id="26" value="" style="group;movable=0;resizable=0;rotatable=0;deletable=0;editable=0;connectable=0;" vertex="1" connectable="0" parent="7">
                    <mxGeometry x="92" y="30" width="30" height="440" as="geometry"/>
                </mxCell>
                <mxCell id="12" value="Search by keyword" style="rounded=0;whiteSpace=wrap;html=1;rotation=-90;" vertex="1" parent="26">
                    <mxGeometry x="-30" y="380" width="90" height="30" as="geometry"/>
                </mxCell>
                <mxCell id="14" value="Search by voice" style="rounded=0;whiteSpace=wrap;html=1;rotation=-90;" vertex="1" parent="26">
                    <mxGeometry x="-30" y="260" width="90" height="30" as="geometry"/>
                </mxCell>
                <mxCell id="15" value="Filter" style="rounded=0;whiteSpace=wrap;html=1;rotation=-90;" vertex="1" parent="26">
                    <mxGeometry x="-30" y="140" width="90" height="30" as="geometry"/>
                </mxCell>
                <mxCell id="16" value="Sort" style="rounded=0;whiteSpace=wrap;html=1;rotation=-90;" vertex="1" parent="26">
                    <mxGeometry x="-30" y="30" width="90" height="30" as="geometry"/>
                </mxCell>
                <mxCell id="27" style="edgeStyle=none;html=1;exitX=0.5;exitY=1;exitDx=0;exitDy=0;entryX=0.667;entryY=1;entryDx=0;entryDy=0;entryPerimeter=0;" edge="1" parent="26" source="14" target="14">
                    <mxGeometry relative="1" as="geometry"/>
                </mxCell>
                <mxCell id="31" value="" style="endArrow=none;html=1;" edge="1" parent="7">
                    <mxGeometry width="50" height="50" relative="1" as="geometry">
                        <mxPoint x="60" y="461.388916015625" as="sourcePoint"/>
                        <mxPoint x="60" y="50" as="targetPoint"/>
                    </mxGeometry>
                </mxCell>
                <mxCell id="35" value="" style="endArrow=classic;html=1;" edge="1" parent="7">
                    <mxGeometry width="50" height="50" relative="1" as="geometry">
                        <mxPoint x="60" y="460" as="sourcePoint"/>
                        <mxPoint x="90" y="460" as="targetPoint"/>
                    </mxGeometry>
                </mxCell>
                <mxCell id="36" value="" style="endArrow=classic;html=1;" edge="1" parent="7">
                    <mxGeometry width="50" height="50" relative="1" as="geometry">
                        <mxPoint x="61" y="309" as="sourcePoint"/>
                        <mxPoint x="91" y="309" as="targetPoint"/>
                    </mxGeometry>
                </mxCell>
                <mxCell id="37" value="" style="endArrow=classic;html=1;" edge="1" parent="7">
                    <mxGeometry width="50" height="50" relative="1" as="geometry">
                        <mxPoint x="61" y="186" as="sourcePoint"/>
                        <mxPoint x="91" y="186" as="targetPoint"/>
                    </mxGeometry>
                </mxCell>
                <mxCell id="38" value="" style="endArrow=classic;html=1;" edge="1" parent="7">
                    <mxGeometry width="50" height="50" relative="1" as="geometry">
                        <mxPoint x="58" y="50" as="sourcePoint"/>
                        <mxPoint x="88" y="50" as="targetPoint"/>
                    </mxGeometry>
                </mxCell>
                <mxCell id="8" value="System" style="swimlane;startSize=20;" vertex="1" parent="6">
                    <mxGeometry x="180" width="140" height="480" as="geometry"/>
                </mxCell>
                <mxCell id="18" value="Convertt to text" style="rounded=0;whiteSpace=wrap;html=1;rotation=-90;" vertex="1" parent="8">
                    <mxGeometry x="-35" y="230" width="100" height="20" as="geometry"/>
                </mxCell>
                <mxCell id="17" value="Display available products" style="rounded=0;whiteSpace=wrap;html=1;rotation=-90;" vertex="1" parent="8">
                    <mxGeometry x="-10" y="350" width="110" height="40" as="geometry"/>
                </mxCell>
                <mxCell id="19" value="Search by type" style="rounded=0;whiteSpace=wrap;html=1;rotation=-90;" vertex="1" parent="8">
                    <mxGeometry y="130" width="60" height="30" as="geometry"/>
                </mxCell>
                <mxCell id="20" value="Sort by price(high to low)" style="rounded=0;whiteSpace=wrap;html=1;rotation=-90;" vertex="1" parent="8">
                    <mxGeometry x="15" y="40" width="60" height="40" as="geometry"/>
                </mxCell>
                <mxCell id="21" value="Sort by price(low to high)" style="rounded=0;whiteSpace=wrap;html=1;rotation=-90;" vertex="1" parent="8">
                    <mxGeometry x="65" y="40" width="60" height="40" as="geometry"/>
                </mxCell>
                <mxCell id="62" style="edgeStyle=orthogonalEdgeStyle;html=1;exitX=0;exitY=0;exitDx=0;exitDy=0;entryX=0;entryY=0.75;entryDx=0;entryDy=0;" edge="1" parent="8" source="43" target="20">
                    <mxGeometry relative="1" as="geometry"/>
                </mxCell>
                <mxCell id="64" style="edgeStyle=orthogonalEdgeStyle;html=1;exitX=1;exitY=1;exitDx=0;exitDy=0;entryX=0;entryY=0.5;entryDx=0;entryDy=0;" edge="1" parent="8" source="43" target="21">
                    <mxGeometry relative="1" as="geometry"/>
                </mxCell>
                <mxCell id="43" value="" style="ellipse;whiteSpace=wrap;html=1;aspect=fixed;" vertex="1" parent="8">
                    <mxGeometry x="50" y="100" width="10" height="10" as="geometry"/>
                </mxCell>
                <mxCell id="9" value="Database" style="swimlane;startSize=20;" vertex="1" parent="6">
                    <mxGeometry x="320" width="120" height="480" as="geometry"/>
                </mxCell>
                <mxCell id="22" value="Query" style="rounded=0;whiteSpace=wrap;html=1;rotation=-90;" vertex="1" parent="9">
                    <mxGeometry x="-20" y="175" width="92.5" height="25" as="geometry"/>
                </mxCell>
                <mxCell id="67" style="edgeStyle=orthogonalEdgeStyle;html=1;exitX=0.5;exitY=0;exitDx=0;exitDy=0;entryX=0;entryY=0.5;entryDx=0;entryDy=0;" edge="1" parent="9" source="41" target="22">
                    <mxGeometry relative="1" as="geometry"/>
                </mxCell>
                <mxCell id="41" value="" style="ellipse;whiteSpace=wrap;html=1;aspect=fixed;" vertex="1" parent="9">
                    <mxGeometry x="16.25" y="440" width="20" height="20" as="geometry"/>
                </mxCell>
                <mxCell id="11" value="End" style="ellipse;whiteSpace=wrap;html=1;rotation=-90;" vertex="1" parent="9">
                    <mxGeometry x="50" y="350" width="60" height="30" as="geometry"/>
                </mxCell>
                <mxCell id="47" style="edgeStyle=none;html=1;exitX=0.25;exitY=1;exitDx=0;exitDy=0;entryX=0;entryY=0.5;entryDx=0;entryDy=0;" edge="1" parent="6" source="12" target="41">
                    <mxGeometry relative="1" as="geometry"/>
                </mxCell>
                <mxCell id="51" style="edgeStyle=orthogonalEdgeStyle;html=1;exitX=0.5;exitY=1;exitDx=0;exitDy=0;entryX=0.5;entryY=0;entryDx=0;entryDy=0;" edge="1" parent="6" source="14" target="18">
                    <mxGeometry relative="1" as="geometry"/>
                </mxCell>
                <mxCell id="53" style="edgeStyle=orthogonalEdgeStyle;html=1;exitX=0;exitY=0;exitDx=0;exitDy=0;entryX=1;entryY=0.5;entryDx=0;entryDy=0;" edge="1" parent="6" source="22" target="17">
                    <mxGeometry relative="1" as="geometry"/>
                </mxCell>
                <mxCell id="54" style="edgeStyle=orthogonalEdgeStyle;html=1;exitX=0.75;exitY=1;exitDx=0;exitDy=0;entryX=0.5;entryY=0;entryDx=0;entryDy=0;" edge="1" parent="6" source="15" target="19">
                    <mxGeometry relative="1" as="geometry"/>
                </mxCell>
                <mxCell id="55" style="edgeStyle=orthogonalEdgeStyle;html=1;exitX=0.5;exitY=1;exitDx=0;exitDy=0;entryX=0.644;entryY=-0.043;entryDx=0;entryDy=0;entryPerimeter=0;" edge="1" parent="6" source="19" target="22">
                    <mxGeometry relative="1" as="geometry"/>
                </mxCell>
                <mxCell id="61" style="edgeStyle=orthogonalEdgeStyle;html=1;exitX=0.5;exitY=1;exitDx=0;exitDy=0;entryX=0;entryY=0.5;entryDx=0;entryDy=0;" edge="1" parent="6" source="16" target="43">
                    <mxGeometry relative="1" as="geometry"/>
                </mxCell>
                <mxCell id="52" style="edgeStyle=orthogonalEdgeStyle;html=1;exitX=0.25;exitY=1;exitDx=0;exitDy=0;" edge="1" parent="1" source="18">
                    <mxGeometry relative="1" as="geometry">
                        <mxPoint x="560" y="210" as="targetPoint"/>
                    </mxGeometry>
                </mxCell>
                <mxCell id="65" style="edgeStyle=orthogonalEdgeStyle;html=1;exitX=0.5;exitY=1;exitDx=0;exitDy=0;" edge="1" parent="1" source="21">
                    <mxGeometry relative="1" as="geometry">
                        <mxPoint x="570" y="140" as="targetPoint"/>
                    </mxGeometry>
                </mxCell>
                <mxCell id="66" style="edgeStyle=orthogonalEdgeStyle;html=1;exitX=0.5;exitY=1;exitDx=0;exitDy=0;" edge="1" parent="1" source="17">
                    <mxGeometry relative="1" as="geometry">
                        <mxPoint x="620" y="370" as="targetPoint"/>
                    </mxGeometry>
                </mxCell>
            </root>
        </mxGraphModel>
    </diagram>
</mxfile>